<svg viewBox="0 0 31 31" fill="none" xmlns="http://www.w3.org/2000/svg">
    <path d="M7 7.90278C7 7.76361 7.05619 7.63014 7.15621 7.53174C7.25624 7.43333 7.3919 7.37805 7.53335 7.37805H9.1334C9.25237 7.37808 9.36791 7.41725 9.46166 7.48932C9.5554 7.56139 9.62196 7.66223 9.65075 7.77579L10.0828 9.47695H22.4671C22.5455 9.47702 22.6228 9.49406 22.6937 9.52685C22.7645 9.55964 22.8272 9.60739 22.8772 9.66669C22.9272 9.72599 22.9633 9.7954 22.9829 9.86998C23.0026 9.94456 23.0053 10.0225 22.9909 10.0982L21.3908 18.4938C21.368 18.614 21.3031 18.7226 21.2075 18.8008C21.1118 18.879 20.9914 18.9219 20.8671 18.922H11.2668C11.1425 18.9219 11.0221 18.879 10.9264 18.8008C10.8308 18.7226 10.7659 18.614 10.743 18.4938L9.14407 10.114L8.71739 8.4275H7.53335C7.3919 8.4275 7.25624 8.37222 7.15621 8.27381C7.05619 8.17541 7 8.04194 7 7.90278ZM10.3089 10.5264L11.7095 17.8725H20.4244L21.825 10.5264H10.3089ZM12.3335 18.922C11.7677 18.922 11.225 19.1431 10.825 19.5367C10.4249 19.9303 10.2001 20.4642 10.2001 21.0209C10.2001 21.5775 10.4249 22.1114 10.825 22.505C11.225 22.8986 11.7677 23.1198 12.3335 23.1198C12.8993 23.1198 13.4419 22.8986 13.842 22.505C14.2421 22.1114 14.4669 21.5775 14.4669 21.0209C14.4669 20.4642 14.2421 19.9303 13.842 19.5367C13.4419 19.1431 12.8993 18.922 12.3335 18.922ZM19.8004 18.922C19.2346 18.922 18.6919 19.1431 18.2919 19.5367C17.8918 19.9303 17.667 20.4642 17.667 21.0209C17.667 21.5775 17.8918 22.1114 18.2919 22.505C18.6919 22.8986 19.2346 23.1198 19.8004 23.1198C20.3662 23.1198 20.9088 22.8986 21.3089 22.505C21.709 22.1114 21.9338 21.5775 21.9338 21.0209C21.9338 20.4642 21.709 19.9303 21.3089 19.5367C20.9088 19.1431 20.3662 18.922 19.8004 18.922ZM12.3335 19.9714C12.6164 19.9714 12.8877 20.082 13.0878 20.2788C13.2878 20.4756 13.4002 20.7425 13.4002 21.0209C13.4002 21.2992 13.2878 21.5661 13.0878 21.7629C12.8877 21.9598 12.6164 22.0703 12.3335 22.0703C12.0506 22.0703 11.7793 21.9598 11.5792 21.7629C11.3792 21.5661 11.2668 21.2992 11.2668 21.0209C11.2668 20.7425 11.3792 20.4756 11.5792 20.2788C11.7793 20.082 12.0506 19.9714 12.3335 19.9714ZM19.8004 19.9714C20.0833 19.9714 20.3546 20.082 20.5547 20.2788C20.7547 20.4756 20.8671 20.7425 20.8671 21.0209C20.8671 21.2992 20.7547 21.5661 20.5547 21.7629C20.3546 21.9598 20.0833 22.0703 19.8004 22.0703C19.5175 22.0703 19.2462 21.9598 19.0461 21.7629C18.8461 21.5661 18.7337 21.2992 18.7337 21.0209C18.7337 20.7425 18.8461 20.4756 19.0461 20.2788C19.2462 20.082 19.5175 19.9714 19.8004 19.9714V19.9714Z" fill="currentColor"/>
</svg>
