<svg width="179" height="35" viewBox="0 0 179 35" fill="none" xmlns="http://www.w3.org/2000/svg">
<path d="M168.821 27.3707C166.767 27.3707 164.994 26.9659 163.503 26.1562C162.02 25.338 160.878 24.1747 160.076 22.6661C159.284 21.1491 158.887 19.3465 158.887 17.2585C158.887 15.2301 159.288 13.4573 160.089 11.9403C160.89 10.4147 162.02 9.23007 163.477 8.38632C164.934 7.53405 166.652 7.10791 168.629 7.10791C170.027 7.10791 171.305 7.32524 172.464 7.7599C173.623 8.19456 174.625 8.83802 175.468 9.6903C176.312 10.5426 176.968 11.5951 177.437 12.848C177.906 14.0923 178.14 15.5198 178.14 17.1306V18.6903H161.074V15.0596H172.324C172.315 14.3948 172.157 13.8025 171.851 13.2826C171.544 12.7627 171.122 12.3579 170.585 12.0681C170.056 11.7698 169.447 11.6207 168.757 11.6207C168.058 11.6207 167.431 11.7784 166.878 12.0937C166.324 12.4005 165.885 12.8224 165.561 13.3593C165.237 13.8877 165.066 14.4886 165.049 15.1619V18.8565C165.049 19.6576 165.207 20.3607 165.522 20.9659C165.838 21.5625 166.285 22.0269 166.865 22.3593C167.444 22.6917 168.135 22.8579 168.936 22.8579C169.49 22.8579 169.993 22.7812 170.444 22.6278C170.896 22.4744 171.284 22.2485 171.608 21.9502C171.931 21.6519 172.174 21.2855 172.336 20.8508L178.076 21.017C177.838 22.3039 177.314 23.4247 176.504 24.3792C175.703 25.3252 174.65 26.0625 173.346 26.5909C172.042 27.1107 170.534 27.3707 168.821 27.3707Z" fill="white"/>
<path d="M145.509 27V7.36368H151.581V10.9432H151.786C152.144 9.64777 152.728 8.6847 153.537 8.05402C154.347 7.41482 155.289 7.09521 156.363 7.09521C156.652 7.09521 156.951 7.11652 157.257 7.15913C157.564 7.19323 157.85 7.24862 158.114 7.32533V12.7586C157.816 12.6563 157.424 12.5753 156.938 12.5157C156.461 12.456 156.034 12.4262 155.659 12.4262C154.918 12.4262 154.249 12.5924 153.652 12.9248C153.064 13.2486 152.6 13.7046 152.259 14.2927C151.927 14.8722 151.76 15.554 151.76 16.3381V27H145.509Z" fill="white"/>
<path d="M132.996 27.3707C130.942 27.3707 129.17 26.9659 127.678 26.1562C126.195 25.338 125.053 24.1747 124.252 22.6661C123.46 21.1491 123.063 19.3465 123.063 17.2585C123.063 15.2301 123.464 13.4573 124.265 11.9403C125.066 10.4147 126.195 9.23007 127.653 8.38632C129.11 7.53405 130.827 7.10791 132.805 7.10791C134.202 7.10791 135.481 7.32524 136.64 7.7599C137.799 8.19456 138.8 8.83802 139.644 9.6903C140.488 10.5426 141.144 11.5951 141.613 12.848C142.082 14.0923 142.316 15.5198 142.316 17.1306V18.6903H125.249V15.0596H136.499C136.491 14.3948 136.333 13.8025 136.026 13.2826C135.719 12.7627 135.298 12.3579 134.761 12.0681C134.232 11.7698 133.623 11.6207 132.933 11.6207C132.234 11.6207 131.607 11.7784 131.053 12.0937C130.499 12.4005 130.06 12.8224 129.737 13.3593C129.413 13.8877 129.242 14.4886 129.225 15.1619V18.8565C129.225 19.6576 129.383 20.3607 129.698 20.9659C130.014 21.5625 130.461 22.0269 131.041 22.3593C131.62 22.6917 132.31 22.8579 133.112 22.8579C133.666 22.8579 134.168 22.7812 134.62 22.6278C135.072 22.4744 135.46 22.2485 135.783 21.9502C136.107 21.6519 136.35 21.2855 136.512 20.8508L142.252 21.017C142.014 22.3039 141.489 23.4247 140.68 24.3792C139.879 25.3252 138.826 26.0625 137.522 26.5909C136.218 27.1107 134.71 27.3707 132.996 27.3707Z" fill="white"/>
<path d="M96.8878 27.0001V0.818237H103.216V11.3268H113.533V0.818237H119.848V27.0001H113.533V16.4787H103.216V27.0001H96.8878Z" fill="white"/>
<path d="M76.0306 27.3707C73.9681 27.3707 72.1953 26.9488 70.7124 26.1051C69.2379 25.2528 68.1002 24.0681 67.299 22.5511C66.5064 21.0255 66.1101 19.2571 66.1101 17.2457C66.1101 15.2258 66.5064 13.4573 67.299 11.9403C68.1002 10.4147 69.2379 9.23007 70.7124 8.38632C72.1953 7.53405 73.9681 7.10791 76.0306 7.10791C78.0931 7.10791 79.8615 7.53405 81.336 8.38632C82.8189 9.23007 83.9567 10.4147 84.7493 11.9403C85.5504 13.4573 85.951 15.2258 85.951 17.2457C85.951 19.2571 85.5504 21.0255 84.7493 22.5511C83.9567 24.0681 82.8189 25.2528 81.336 26.1051C79.8615 26.9488 78.0931 27.3707 76.0306 27.3707ZM76.0689 22.6534C76.8189 22.6534 77.4539 22.4233 77.9737 21.963C78.4936 21.5028 78.8899 20.8636 79.1627 20.0454C79.4439 19.2272 79.5845 18.2812 79.5845 17.2073C79.5845 16.1164 79.4439 15.1619 79.1627 14.3437C78.8899 13.5255 78.4936 12.8863 77.9737 12.4261C77.4539 11.9659 76.8189 11.7358 76.0689 11.7358C75.2933 11.7358 74.6371 11.9659 74.1002 12.4261C73.5718 12.8863 73.1669 13.5255 72.8857 14.3437C72.6129 15.1619 72.4766 16.1164 72.4766 17.2073C72.4766 18.2812 72.6129 19.2272 72.8857 20.0454C73.1669 20.8636 73.5718 21.5028 74.1002 21.963C74.6371 22.4233 75.2933 22.6534 76.0689 22.6534Z" fill="white"/>
<path d="M52.9201 34.7727C51.0536 34.7727 49.4556 34.5127 48.126 33.9929C46.7965 33.473 45.7525 32.7613 44.9939 31.8579C44.2354 30.9545 43.7795 29.9318 43.626 28.7897L49.5451 28.4573C49.6559 28.8579 49.8604 29.2073 50.1587 29.5056C50.4655 29.8039 50.8618 30.034 51.3476 30.196C51.842 30.3579 52.4215 30.4389 53.0863 30.4389C54.1346 30.4389 54.9996 30.1832 55.6814 29.6718C56.3718 29.169 56.717 28.2869 56.717 27.0255V23.5738H56.4996C56.2525 24.1789 55.8775 24.7201 55.3746 25.1974C54.8718 25.6747 54.2454 26.0497 53.4954 26.3224C52.7539 26.5951 51.9016 26.7315 50.9385 26.7315C49.5067 26.7315 48.1942 26.3991 47.001 25.7343C45.8164 25.061 44.8661 24.0213 44.1502 22.615C43.4428 21.2002 43.0891 19.3806 43.0891 17.1562C43.0891 14.8636 43.4556 12.9758 44.1885 11.4929C44.9215 10.0014 45.8803 8.89768 47.065 8.18177C48.2581 7.46586 49.5408 7.10791 50.913 7.10791C51.9442 7.10791 52.8263 7.28689 53.5593 7.64484C54.3008 7.99427 54.9101 8.44598 55.3874 8.99996C55.8647 9.55393 56.2269 10.1292 56.4741 10.7258H56.653V7.36359H62.8789V27.0767C62.8789 28.7386 62.4613 30.1406 61.626 31.2826C60.7908 32.4247 59.6232 33.2897 58.1232 33.8778C56.6232 34.4744 54.8888 34.7727 52.9201 34.7727ZM53.1118 22.1804C53.8704 22.1804 54.5181 21.9801 55.055 21.5795C55.592 21.1789 56.0053 20.6036 56.2951 19.8536C56.5849 19.1036 56.7297 18.2045 56.7297 17.1562C56.7297 16.0909 56.5849 15.1747 56.2951 14.4076C56.0138 13.6321 55.6005 13.0355 55.055 12.6179C54.5181 12.2002 53.8704 11.9914 53.1118 11.9914C52.3363 11.9914 51.68 12.2045 51.1431 12.6306C50.6062 13.0568 50.1971 13.6576 49.9158 14.4332C49.6431 15.2002 49.5067 16.1079 49.5067 17.1562C49.5067 18.2045 49.6474 19.1036 49.9286 19.8536C50.2099 20.6036 50.6147 21.1789 51.1431 21.5795C51.68 21.9801 52.3363 22.1804 53.1118 22.1804Z" fill="white"/>
<path d="M30.6438 27.3707C28.5813 27.3707 26.8086 26.9488 25.3257 26.1051C23.8512 25.2528 22.7134 24.0681 21.9123 22.5511C21.1197 21.0255 20.7234 19.2571 20.7234 17.2457C20.7234 15.2258 21.1197 13.4573 21.9123 11.9403C22.7134 10.4147 23.8512 9.23007 25.3257 8.38632C26.8086 7.53405 28.5813 7.10791 30.6438 7.10791C32.7063 7.10791 34.4748 7.53405 35.9492 8.38632C37.4322 9.23007 38.57 10.4147 39.3626 11.9403C40.1637 13.4573 40.5643 15.2258 40.5643 17.2457C40.5643 19.2571 40.1637 21.0255 39.3626 22.5511C38.57 24.0681 37.4322 25.2528 35.9492 26.1051C34.4748 26.9488 32.7063 27.3707 30.6438 27.3707ZM30.6822 22.6534C31.4322 22.6534 32.0671 22.4233 32.587 21.963C33.1069 21.5028 33.5032 20.8636 33.7759 20.0454C34.0572 19.2272 34.1978 18.2812 34.1978 17.2073C34.1978 16.1164 34.0572 15.1619 33.7759 14.3437C33.5032 13.5255 33.1069 12.8863 32.587 12.4261C32.0671 11.9659 31.4322 11.7358 30.6822 11.7358C29.9066 11.7358 29.2504 11.9659 28.7134 12.4261C28.185 12.8863 27.7802 13.5255 27.499 14.3437C27.2262 15.1619 27.0899 16.1164 27.0899 17.2073C27.0899 18.2812 27.2262 19.2272 27.499 20.0454C27.7802 20.8636 28.185 21.5028 28.7134 21.963C29.2504 22.4233 29.9066 22.6534 30.6822 22.6534Z" fill="white"/>
<path d="M0.981506 27.0001V0.818237H7.30963V21.8609H18.2017V27.0001H0.981506Z" fill="white"/>
</svg>
